# xmcd
# Track frame offsets:
# 150
# 23715
# 36670
# 52266
# 73282
# 85713
# 101163
# 115692
# 129855
# 144090
# 156401
# 170207
# 182871
# 199410
# 214037
# 224000
# 240795
# 254263
#
# Disc length: 3580 seconds
# Revision: 0
# Processed by: cddbd v1.5.2PL0 Copyright (c) Steve Scherf et al.
# Submitted via: VisiTrax 2.10.0.248 - For more info visit www.synapsa.com
#
DISCID=120dfa12
DTITLE=DR: Hook - The Collection
DYEAR=2007
DGENRE=
TTITLE0=When You're In Love With A Beautiful Woman
TTITLE1=Sharing The Night together
TTITLE2=Sexy Eyes
TTITLE3=Clyde
TTITLE4=Only sixteen
TTITLE5=I Got Stoned And I Missed It
TTITLE6=A Little Bit More
TTITLE7=If Not You
TTITLE8=A Couple More Years
TTITLE9=Making Love And Music
TTITLE10=Walk Right In
TTITLE11=Let The Loose End Drag
TTITLE12=More Like The Movies
TTITLE13=Jungle To The Zoo
TTITLE14=You Make My Pants Want To Get Up And Dance
TTITLE15=Dooley Jones
TTITLE16=Better Love Next Time
TTITLE17=Years From Now On
EXTD=
EXTT0=
EXTT1=
EXTT2=
EXTT3=
EXTT4=
EXTT5=
EXTT6=
EXTT7=
EXTT8=
EXTT9=
EXTT10=
EXTT11=
EXTT12=
EXTT13=
EXTT14=
EXTT15=
EXTT16=
EXTT17=
PLAYORDER=
